# xmcd
#
# Track frame offsets:
#	183
#	18958
#	40005
#	59045
#	73368
#	92390
#	106588
#	124330
#	140773
#	160228
#	185768
#	207280
#	221520
#	244300
#
# Disc length: 3642 seconds
#
# Revision: 2
# Processed by: cddbd v1.4PL0 Copyright (c) Steve Scherf et al.
# Submitted via: dBpowerAMP V4.0
#
DISCID=d10e380e
DTITLE=Leila Pinheiro - Personalidade
DYEAR=1900
DGENRE=Bossa Nova
TTITLE0=Besame
TTITLE1=Ilusao a Toa,O Que E Amar
TTITLE2=Serra do Luar,Coracao Tranquilo
TTITLE3=Errinho a Toa
TTITLE4=Tempo Perdido
TTITLE5=Olho Nu
TTITLE6=Lobo Bobo,Saudade Fez um Samba,Voce e Eu,Se E Tarde Me Perdoa
TTITLE7=Call Me
TTITLE8=Bom Humor
TTITLE9=Ah! Se eu Pudesse,O Barquinho,Voce,Nos e o Mar
TTITLE10=Verde
TTITLE11=O Fundo
TTITLE12=Besame Mucho
TTITLE13=O Amor em Paz/Meditacao,Corcovado,Ela E Carioca
EXTD=
EXTT0=
EXTT1=
EXTT2=
EXTT3=
EXTT4=
EXTT5=
EXTT6=
EXTT7=
EXTT8=
EXTT9=
EXTT10=
EXTT11=
EXTT12=
EXTT13=
PLAYORDER=
